<svg width="114" height="114" viewBox="0 0 114 114" fill="none" xmlns="http://www.w3.org/2000/svg">
<g filter="url(#filter0_d_270_815)">
<circle cx="56.5198" cy="52.5198" r="52.5198" fill="#72C8F9"/>
<path fill-rule="evenodd" clip-rule="evenodd" d="M48.6817 25.5562C48.3053 25.6645 48.0129 25.961 47.8994 26.3494C47.8442 26.5382 47.8541 26.7727 47.9289 27.0522C47.9635 27.181 48.1842 28.0024 48.4196 28.8775C48.6549 29.7526 48.8871 30.618 48.9355 30.8005C49.0538 31.2461 49.1337 31.4078 49.3232 31.5847C49.5666 31.8121 49.8418 31.9157 50.1557 31.8983C50.6264 31.8722 51.0139 31.5767 51.1728 31.1226C51.2087 31.02 51.2171 30.9546 51.217 30.781L51.2168 30.5662L50.863 29.2582C50.6684 28.5388 50.4079 27.5725 50.2841 27.1107C50.0216 26.1323 49.9891 26.0511 49.7769 25.8417C49.627 25.6938 49.4658 25.6014 49.2675 25.5498C49.1144 25.5099 48.8318 25.513 48.6817 25.5562ZM34.0199 26.3001C33.7434 26.3413 33.5267 26.4539 33.3371 26.6549C33.1176 26.8875 33.0229 27.1509 33.0398 27.4816C33.0517 27.7143 33.0942 27.8466 33.2167 28.0328C33.2815 28.1313 34.4932 29.3535 37.9765 32.8338L42.6493 37.5027L42.8152 37.5819C43.0742 37.7056 43.1829 37.717 43.6688 37.6714C44.709 37.5738 45.806 37.6531 46.8174 37.8989C47.7319 38.1211 48.68 38.5132 49.4919 39.0049L49.7555 39.1645L50.7902 39.5143C51.572 39.7785 52.0706 39.9619 52.8303 40.2646C53.8732 40.6801 54.7353 41.0233 57.2033 42.0056C58.0032 42.324 58.7047 42.6126 58.7621 42.6469C58.9991 42.7884 59.2336 43.1218 59.2904 43.3983C59.385 43.8581 59.1846 44.3491 58.7964 44.6088C58.572 44.7589 58.4354 44.7982 58.1404 44.7976C57.9103 44.7972 57.8846 44.7931 57.6914 44.7257C57.5017 44.6595 57.137 44.5412 55.7489 44.0954C55.459 44.0023 55.0856 43.8824 54.9192 43.8289C54.7527 43.7755 54.5814 43.7197 54.5385 43.705C54.2876 43.6191 52.9818 43.2057 52.9084 43.1889C52.7794 43.1596 52.5428 43.1637 52.4098 43.1977C52.0285 43.295 51.719 43.5904 51.5957 43.9748C51.5679 44.0616 51.557 44.1499 51.5569 44.2905C51.5566 44.5185 51.6125 44.7164 51.7294 44.9021C51.7773 44.9782 53.4091 46.6233 56.9464 50.1618C60.9608 54.1776 62.1099 55.3376 62.1675 55.4326C62.4469 55.8934 62.3743 56.468 61.9879 56.855C61.6235 57.2199 61.1107 57.3038 60.6393 57.0757C60.496 57.0064 60.4116 56.9238 56.7445 53.2606C54.2403 50.7591 52.9606 49.4941 52.8888 49.4492C52.6471 49.2978 52.3591 49.2384 52.0951 49.2854C51.536 49.385 51.1513 49.8391 51.1513 50.3995C51.1513 50.5871 51.1919 50.7497 51.2831 50.9281C51.3483 51.0558 51.659 51.3713 56.0027 55.7209C60.3648 60.089 60.6568 60.3856 60.7234 60.5155C60.8205 60.7051 60.854 60.8479 60.854 61.0732C60.854 61.5164 60.6145 61.9065 60.2207 62.1047C59.8652 62.2836 59.5221 62.2827 59.1555 62.1021L58.9896 62.0203L54.2847 57.3193L49.5798 52.6183L49.43 52.5494C49.2261 52.4555 49.1131 52.4347 48.8686 52.4459C48.6375 52.4565 48.5014 52.4979 48.3216 52.6122C48.0971 52.755 47.9203 52.9971 47.8416 53.2694C47.7981 53.4201 47.798 53.682 47.8414 53.8468C47.9202 54.1458 47.6546 53.8666 52.0013 58.2198C54.2046 60.4263 56.0335 62.2712 56.0656 62.3195C56.3308 62.7186 56.3283 63.2387 56.0591 63.6326C55.8363 63.9587 55.4948 64.1388 55.0969 64.1402C54.8798 64.1409 54.7417 64.107 54.5385 64.0032C54.411 63.9381 54.1326 63.6646 50.3704 59.9078C46.4943 56.0371 46.3336 55.8794 46.1976 55.8126C45.8105 55.6225 45.3993 55.6463 45.0513 55.8791C44.5536 56.212 44.4067 56.8724 44.7132 57.3985C44.7598 57.4784 45.4125 58.1453 47.1796 59.9182C49.766 62.5133 49.6523 62.3905 49.7377 62.6807C49.7842 62.8388 49.7842 63.1475 49.7377 63.3046C49.6039 63.7561 49.2548 64.0685 48.7945 64.1486C48.5187 64.1965 48.2393 64.1416 47.9938 63.9912C47.8399 63.8969 37.5582 53.6109 37.2779 53.2708C36.4277 52.2394 35.8468 51.1739 35.4738 49.9618C35.1525 48.9179 35.0268 47.9838 35.0534 46.8382C35.0675 46.2328 35.0605 46.1788 34.9344 45.9206C34.8645 45.7774 34.757 45.6683 30.0393 40.9506C25.5232 36.4343 25.207 36.1224 25.0791 36.0572C24.8757 35.9534 24.7586 35.9251 24.5325 35.9251C24.1978 35.9251 23.9771 36.017 23.7401 36.2548C23.5136 36.4822 23.4097 36.7316 23.4102 37.0469C23.4105 37.275 23.4693 37.4738 23.5921 37.6626C23.6235 37.711 25.7029 39.8062 28.213 42.3187L32.7767 46.887L32.7895 47.3263C32.8325 48.7957 33.0552 49.9757 33.5318 51.26C34.0351 52.6161 34.7353 53.7871 35.7262 54.9303C35.9759 55.2182 46.1547 65.4101 46.3929 65.6106C46.8769 66.0179 47.3829 66.2528 48.057 66.3831C48.2698 66.4242 48.986 66.4186 49.2089 66.3741C49.9092 66.2341 50.4714 65.9499 50.9511 65.4934C51.2511 65.2079 51.5072 64.8734 51.6513 64.579C51.6815 64.5171 51.7128 64.4688 51.7208 64.4716C51.7287 64.4744 51.9706 64.7101 52.2583 64.9954C52.8271 65.5593 52.9452 65.6639 53.211 65.839C54.2293 66.51 55.5438 66.5861 56.639 66.0374C57.2364 65.7381 57.8392 65.1452 58.1242 64.5767C58.1571 64.511 58.1877 64.4533 58.1921 64.4485C58.1965 64.4437 58.9268 65.1646 59.815 66.0504C60.7032 66.9363 61.5319 67.7467 61.6566 67.8514C62.4475 68.5155 63.1829 68.9981 64.085 69.445C65.6678 70.2293 67.2753 70.6232 69.0792 70.669L69.5638 70.6813L73.8723 74.9878C77.1826 78.2966 78.2073 79.3099 78.2951 79.3616C78.4679 79.4632 78.6066 79.5043 78.8107 79.5145C79.1698 79.5324 79.4247 79.4364 79.6733 79.1898C80.027 78.8389 80.1072 78.3438 79.8856 77.8789C79.8292 77.7605 79.5199 77.4466 75.2674 73.1918C72.0821 70.0048 70.6778 68.6123 70.6037 68.5674C70.5455 68.5321 70.4385 68.4811 70.3662 68.4542L70.2345 68.4053L69.3951 68.4011C68.5101 68.3968 68.2735 68.3793 67.6805 68.2743C66.1748 68.0078 64.7858 67.4059 63.5747 66.4949C63.1634 66.1855 62.8529 65.9012 61.9885 65.0422L61.122 64.1811L61.1978 64.1451C61.4864 64.0082 61.8299 63.7644 62.0903 63.5117C63.0322 62.5977 63.3566 61.223 62.9314 59.9467C62.8673 59.7541 62.7193 59.4365 62.6253 59.2895L62.5545 59.1788L62.7402 59.0796C63.5557 58.6438 64.134 57.969 64.4153 57.1246C64.537 56.7591 64.5665 56.5766 64.5772 56.1211C64.5856 55.7602 64.5817 55.6808 64.5439 55.4574C64.4478 54.8888 64.1936 54.322 63.8348 53.876C63.7916 53.8224 62.1918 52.2125 60.2798 50.2985C58.3678 48.3846 56.813 46.8187 56.8248 46.8187C56.8365 46.8187 56.9068 46.8408 56.9808 46.8679C57.138 46.9255 57.4247 46.9995 57.6328 47.0362C57.8529 47.0751 58.4749 47.0695 58.7065 47.0266C59.0826 46.957 59.3794 46.8564 59.7089 46.6869L59.8815 46.5981L62.647 49.3601C65.0249 51.735 65.4289 52.1305 65.5296 52.1824C65.9688 52.4083 66.499 52.33 66.8452 51.9881C67.0642 51.7718 67.176 51.5064 67.1781 51.1975C67.1796 50.9914 67.1522 50.8654 67.0665 50.6841C66.9984 50.5402 66.9483 50.4887 64.1686 47.7057L61.3399 44.8736L61.3786 44.7675C61.5111 44.4041 61.5638 44.0824 61.5638 43.6365C61.5638 43.3792 61.5541 43.222 61.5301 43.0899C61.3967 42.3556 61.1 41.773 60.582 41.2283C60.5108 41.1534 60.4868 41.1175 60.5124 41.1244C60.5338 41.1301 60.5909 41.1409 60.6393 41.1483C60.7638 41.1675 60.9242 41.23 61.0492 41.3082C61.1216 41.3535 62.7115 42.9297 65.925 46.1419C68.5476 48.7636 70.6933 50.9188 70.6933 50.9314C70.6933 50.944 70.6484 51.0319 70.5936 51.1267C70.1572 51.8807 69.7427 52.9284 69.5218 53.8351C69.2306 55.031 69.1717 56.3057 69.3568 57.4096C69.5904 58.8032 70.1597 60.0467 71.1085 61.236C71.4332 61.643 71.6119 61.7829 71.9064 61.8605C72.0631 61.9018 72.3842 61.8926 72.5409 61.8424C72.7679 61.7697 73.0238 61.5648 73.1512 61.3539C73.257 61.1788 73.2943 61.0467 73.3045 60.811C73.3126 60.6243 73.308 60.5826 73.2634 60.4393C73.2057 60.2544 73.1426 60.1547 72.8701 59.8179C71.2267 57.7868 71.0538 55.2402 72.3801 52.5998C72.5907 52.1806 72.7302 51.9484 73.1007 51.4005C73.2044 51.2471 73.2729 51.0423 73.285 50.8493C73.2962 50.6706 73.2775 50.5644 73.1838 50.2741C73.1474 50.1614 73.0417 49.832 72.949 49.5421C72.8563 49.2521 72.7684 48.9798 72.7535 48.9369C72.7387 48.8939 72.6507 48.6216 72.5579 48.3317C72.4652 48.0418 72.3465 47.6728 72.2942 47.5117C72.2418 47.3507 72.1232 46.9817 72.0306 46.6918C71.9379 46.4019 71.8168 46.0329 71.7615 45.8718L71.6609 45.579L71.6603 45.3252C71.6598 45.1097 71.6665 45.0517 71.7048 44.9408C71.8649 44.4774 72.3279 44.1441 72.8115 44.1441C73.2332 44.1441 73.6601 44.4015 73.8457 44.7678C73.8705 44.8168 74.0183 45.1775 74.1742 45.5693C74.4514 46.2665 74.86 47.2929 75.8218 49.708C76.0847 50.3683 76.3728 51.0931 76.462 51.3186C76.5511 51.5441 76.7693 52.1604 76.9469 52.6882C77.1244 53.216 77.2863 53.6817 77.3065 53.7229C77.3267 53.7642 77.4097 53.9079 77.491 54.0423C78.103 55.054 78.5493 56.31 78.7257 57.517C78.8129 58.1133 78.8458 59.0954 78.7956 59.6059C78.7346 60.2272 78.747 60.3901 78.8759 60.6601C78.9323 60.7784 79.2372 61.0881 83.3803 65.2343C88.1831 70.0408 87.9079 69.7769 88.203 69.8587C88.2841 69.8812 88.397 69.8942 88.511 69.8942C88.8387 69.8942 89.1197 69.7694 89.3399 69.5261C89.6544 69.1785 89.7178 68.7001 89.5081 68.256C89.451 68.1351 89.1981 67.8779 85.2545 63.9301L81.0615 59.7328L81.0731 59.1569C81.109 57.367 80.7926 55.7733 80.0749 54.1298C79.9395 53.8198 79.6465 53.2488 79.4735 52.958C79.3539 52.7568 79.325 52.6818 79.0339 51.8159C78.8625 51.3062 78.6297 50.6563 78.5164 50.3718C78.4031 50.0872 78.0848 49.2878 77.809 48.5952C77.2455 47.1802 76.6932 45.792 76.2439 44.6614C76.0775 44.2427 75.8977 43.8177 75.8444 43.7171C75.3333 42.7515 74.445 42.1167 73.3386 41.9267C73.047 41.8766 72.5492 41.8806 72.2388 41.9356C71.0038 42.1544 69.9934 43.0044 69.5828 44.1699C69.3185 44.9198 69.3184 45.7139 69.5824 46.4652C69.6141 46.5553 69.6359 46.6331 69.6309 46.6381C69.626 46.6431 68.0656 45.0909 66.1634 43.1889C64.2612 41.2868 62.6454 39.6832 62.5728 39.6253C62.1355 39.2764 61.6283 39.0416 61.0655 38.9276C60.8745 38.8889 60.7855 38.8828 60.4147 38.8828C60.0417 38.8828 59.957 38.8888 59.7705 38.9278C59.1105 39.066 58.5233 39.368 58.0525 39.8114L57.9744 39.8849L57.789 39.8093C57.687 39.7677 57.0413 39.5102 56.3541 39.237C55.6669 38.9638 54.538 38.5145 53.8454 38.2384C52.8397 37.8375 52.3996 37.6738 51.6589 37.4249C50.77 37.1261 50.7215 37.1073 50.4876 36.9703C49.2095 36.2219 47.7334 35.7049 46.2805 35.4969C45.6149 35.4016 45.4529 35.3912 44.5753 35.3876L43.729 35.3841L39.2944 30.9521C35.3246 26.9845 34.8457 26.5123 34.7247 26.4458C34.5039 26.3245 34.2327 26.2684 34.0199 26.3001ZM62.2884 27.2273C62.0226 27.2852 61.7669 27.4395 61.6223 27.6292C61.5339 27.7452 61.4416 27.9235 60.4344 29.922C60.061 30.6629 59.6612 31.4535 59.5458 31.679C58.9255 32.8917 58.6474 33.4652 58.6169 33.5944C58.5723 33.7836 58.5884 34.0556 58.6545 34.2305C58.8263 34.6845 59.2364 34.9727 59.7119 34.9736C60.0686 34.9742 60.4097 34.8042 60.6229 34.5195C60.651 34.4819 60.832 34.1393 61.0251 33.7581C62.8737 30.1079 63.5463 28.7705 63.5782 28.6814C63.622 28.5596 63.6372 28.2636 63.6076 28.1129C63.5353 27.7455 63.2701 27.4268 62.9234 27.2907C62.6911 27.1995 62.5025 27.1807 62.2884 27.2273ZM72.4397 37.5356C72.3855 37.5502 72.1922 37.6207 72.0102 37.6922C71.8281 37.7637 71.2839 37.9765 70.8007 38.1651C69.6399 38.6181 69.56 38.6493 69.3658 38.7244C68.1587 39.1916 68.0572 39.2399 67.8902 39.4257C67.6887 39.6498 67.6017 39.8769 67.6007 40.181C67.5999 40.4428 67.6484 40.6083 67.7861 40.8142C67.9964 41.1287 68.3426 41.3133 68.7216 41.3133C68.9203 41.3133 69.0139 41.2863 69.5768 41.0662C69.8419 40.9625 70.1423 40.8453 70.2443 40.8058C70.3463 40.7662 70.7285 40.617 71.0935 40.4741C71.4586 40.3313 71.955 40.1376 72.1966 40.0438C73.3399 39.5996 73.351 39.5943 73.5278 39.4033C73.8745 39.0288 73.9311 38.4889 73.6706 38.041C73.5421 37.8201 73.276 37.6225 73.001 37.5439C72.8464 37.4996 72.5871 37.4958 72.4397 37.5356ZM31.707 57.5897C31.6253 57.5974 31.5963 57.602 30.1549 57.8395C29.5322 57.9421 28.6493 58.087 28.1929 58.1615C27.3124 58.3051 27.1626 58.3403 26.9827 58.4457C26.8334 58.5332 26.6357 58.7492 26.5568 58.911C26.4888 59.0506 26.4359 59.2646 26.4359 59.4004C26.4359 59.9012 26.7757 60.3494 27.2666 60.4963C27.4528 60.5519 27.686 60.5403 28.2222 60.4488C28.4799 60.4048 29.1212 60.2978 29.6473 60.2111C32.3766 59.7612 32.1081 59.811 32.2914 59.7206C32.8484 59.446 33.0754 58.7623 32.7961 58.2003C32.7156 58.0382 32.484 57.8027 32.3219 57.7181C32.1447 57.6255 31.8907 57.5725 31.707 57.5897ZM38.9683 65.7036C38.7913 65.756 38.6614 65.8292 38.5324 65.9493C38.4797 65.9984 38.2637 66.2538 38.0524 66.5168C37.8411 66.7799 37.4245 67.2982 37.1267 67.6687C34.4816 70.9585 34.456 70.9908 34.3977 71.1154C34.1928 71.5532 34.28 72.056 34.6198 72.3957C34.8336 72.6096 35.1082 72.7243 35.4073 72.7247C35.6958 72.7252 35.9907 72.6117 36.1794 72.4277C36.2375 72.3711 36.4646 72.1007 36.684 71.8269C36.9035 71.5531 37.2808 71.0831 37.5225 70.7825C37.7642 70.4818 38.1561 69.9943 38.3934 69.699C38.8378 69.1459 39.8243 67.9186 40.0881 67.5906C40.1701 67.4886 40.2635 67.3519 40.2956 67.2869C40.5109 66.8516 40.4253 66.3297 40.083 65.9897C39.787 65.6957 39.3627 65.5868 38.9683 65.7036ZM47.7995 70.686C47.443 70.7642 47.1164 71.0561 46.9915 71.4081C46.9201 71.6095 46.9202 71.727 46.9925 73.0276C47.03 73.7008 47.0698 74.4582 47.1104 75.2727C47.1329 75.7236 47.1646 76.1671 47.1807 76.2582C47.2564 76.6842 47.5416 77.005 47.9625 77.1373C48.1444 77.1945 48.4343 77.1952 48.6134 77.1389C48.9947 77.0191 49.2941 76.6953 49.3871 76.3022C49.4237 76.1472 49.4296 76.304 49.2875 73.6621C49.1633 71.356 49.1798 71.5737 49.1158 71.3974C48.9239 70.8692 48.3583 70.5635 47.7995 70.686Z" fill="white"/>
</g>
<defs>
<filter id="filter0_d_270_815" x="0" y="0" width="113.04" height="113.04" filterUnits="userSpaceOnUse" color-interpolation-filters="sRGB">
<feFlood flood-opacity="0" result="BackgroundImageFix"/>
<feColorMatrix in="SourceAlpha" type="matrix" values="0 0 0 0 0 0 0 0 0 0 0 0 0 0 0 0 0 0 127 0" result="hardAlpha"/>
<feOffset dy="4"/>
<feGaussianBlur stdDeviation="2"/>
<feComposite in2="hardAlpha" operator="out"/>
<feColorMatrix type="matrix" values="0 0 0 0 0 0 0 0 0 0 0 0 0 0 0 0 0 0 0.25 0"/>
<feBlend mode="normal" in2="BackgroundImageFix" result="effect1_dropShadow_270_815"/>
<feBlend mode="normal" in="SourceGraphic" in2="effect1_dropShadow_270_815" result="shape"/>
</filter>
</defs>
</svg>
